<?xml version="1.0" encoding="UTF-8" standalone="no"?>
<svg width="103px" height="136px" viewBox="0 0 103 136" version="1.1" xmlns="http://www.w3.org/2000/svg" xmlns:xlink="http://www.w3.org/1999/xlink" xmlns:sketch="http://www.bohemiancoding.com/sketch/ns">
    <!-- Generator: Sketch 3.0.4 (8053) - http://www.bohemiancoding.com/sketch -->
    <title>Monster</title>
    <desc>Created with Sketch.</desc>
    <defs>
        <path id="path-1" d="M0,24.6934932 C0,24.6934932 1.78819444,19.3253425 12.5173611,19.3253425 C23.2465278,19.3253425 25.0347222,24.6934932 25.0347222,24.6934932 L25.0347222,12.5256849 C25.0347222,5.60794016 19.4305088,0 12.5173611,0 C5.60421346,0 0,5.60794016 0,12.5256849 L0,24.6934932 Z"></path>
        <path id="path-3" d="M0,24.6934932 C0,24.6934932 1.78819444,19.3253425 12.5173611,19.3253425 C23.2465278,19.3253425 25.0347222,24.6934932 25.0347222,24.6934932 L25.0347222,12.5256849 C25.0347222,5.60794016 19.4305088,0 12.5173611,0 C5.60421346,0 0,5.60794016 0,12.5256849 L0,24.6934932 Z"></path>
        <path id="path-5" d="M34.3333333,18.609589 C53.2951097,18.609589 71.8854167,1.43150683 68.6666667,0.357876712 C65.4479167,-0.715753408 53.2951097,6.08390403 34.3333333,6.08390403 C15.3715569,6.08390403 1.78819444,-2.14726026 4.27435864e-15,0.357876712 C-1.78819444,2.86301368 15.3715569,18.609589 34.3333333,18.609589 Z"></path>
    </defs>
    <g id="Welcome" stroke="none" stroke-width="1" fill="none" fill-rule="evenodd" sketch:type="MSPage">
        <g id="Desktop-2" sketch:type="MSArtboardGroup" transform="translate(-890.000000, -107.000000)">
            <g id="Jumbotron" sketch:type="MSLayerGroup" transform="translate(-1.000000, 65.000000)">
                <g id="Monster" transform="translate(891.000000, 42.000000)">
                    <path d="M0,208.642123 L103,208.642123 L103,51.5342466 C103,23.0726681 79.9426646,0 51.5,0 C23.0573354,0 0,23.0726681 0,51.5342466 L0,208.642123 Z" id="Oval-1" fill="#FCBC13" sketch:type="MSShapeGroup"></path>
                    <g id="Eye1" transform="translate(11.444444, 31.493151)">
                        <mask id="mask-2" sketch:name="Oval 2" fill="white">
                            <use xlink:href="#path-1"></use>
                        </mask>
                        <use id="Oval-2" fill="#000000" sketch:type="MSShapeGroup" xlink:href="#path-1"></use>
                        <ellipse id="Oval-5" fill="#FFFFFF" sketch:type="MSShapeGroup" mask="url(#mask-2)" cx="10.2256944" cy="11.8099315" rx="2.50347222" ry="2.50513699"></ellipse>
                    </g>
                    <g id="Eye1-2" transform="translate(47.208333, 31.493151)">
                        <mask id="mask-4" sketch:name="Oval 2" fill="white">
                            <use xlink:href="#path-3"></use>
                        </mask>
                        <use id="Oval-2" fill="#000000" sketch:type="MSShapeGroup" xlink:href="#path-3"></use>
                        <ellipse id="Oval-5" fill="#FFFFFF" sketch:type="MSShapeGroup" mask="url(#mask-4)" cx="11.9409722" cy="11.8099315" rx="2.50347222" ry="2.50513699"></ellipse>
                    </g>
                    <g id="Mouth" transform="translate(10.166667, 70.017123)">
                        <mask id="mask-6" sketch:name="Oval 4" fill="white">
                            <use xlink:href="#path-5"></use>
                        </mask>
                        <use id="Oval-4" fill="#F87C7C" sketch:type="MSShapeGroup" xlink:href="#path-5"></use>
                        <path d="M36.4791667,13.9571918 C27.4399369,13.9571918 7.86805556,10.7363014 7.86805556,10.7363014 L7.86805556,22.1883562 L61.5138889,22.1883562 L61.5138889,10.7363014 C61.5138889,10.7363014 45.3218813,13.9571918 36.4791667,13.9571918 Z" id="Rectangle-54" fill="#FFFFFF" sketch:type="MSShapeGroup" mask="url(#mask-6)"></path>
                    </g>
                </g>
            </g>
        </g>
    </g>
</svg>