<?xml version="1.0" encoding="UTF-8" standalone="no"?>
<svg width="228px" height="133px" viewBox="0 0 228 133" version="1.1" xmlns="http://www.w3.org/2000/svg" xmlns:xlink="http://www.w3.org/1999/xlink" xmlns:sketch="http://www.bohemiancoding.com/sketch/ns">
    <!-- Generator: Sketch 3.0.4 (8053) - http://www.bohemiancoding.com/sketch -->
    <title>Icons</title>
    <desc>Created with Sketch.</desc>
    <defs></defs>
    <g id="Welcome" stroke="none" stroke-width="1" fill="none" fill-rule="evenodd" sketch:type="MSPage">
        <g id="Mobile-Portrait-2" sketch:type="MSArtboardGroup" transform="translate(-51.000000, -371.000000)">
            <g id="Icons" sketch:type="MSLayerGroup" transform="translate(51.000000, 370.000000)">
                <g id="Fill-557" transform="translate(75.911330, 34.000000) rotate(-30.000000) translate(-75.911330, -34.000000) translate(61.182266, 20.400000)" fill="#68399C" sketch:type="MSShapeGroup">
                    <path d="M14.8733598,17.6551015 C14.8306455,17.6885785 14.7795847,17.7053169 14.7290149,17.7053169 C14.6784452,17.7053169 14.6278754,17.6885785 14.5846701,17.6551015 C14.3023631,17.4364554 7.67379327,12.2543323 7.67379327,8.25907077 C7.67379327,5.58771692 9.51345337,3.99128615 11.2912514,3.99128615 C12.5108179,3.99128615 13.9817604,4.77590154 14.7290149,6.90900923 C15.4767604,4.77590154 16.947703,3.99128615 18.1667785,3.99128615 C19.9450675,3.99128615 21.7842366,5.58771692 21.7842366,8.25907077 C21.7842366,12.2543323 15.1556668,17.4364554 14.8733598,17.6551015 M28.9671102,0.000209230769 L0.490919704,0.000209230769 C0.219904926,0.000209230769 -4.90968798e-05,0.234024615 -4.90968798e-05,0.523286154 L-4.90968798e-05,21.4463631 C-4.90968798e-05,21.7351015 0.219904926,21.96944 0.490919704,21.96944 L8.83738933,21.96944 L8.83738933,26.6771323 C8.83738933,26.8895015 8.95865862,27.0814708 9.14375386,27.1615015 C9.20365205,27.1876554 9.26600509,27.2002092 9.32835813,27.2002092 C9.45846486,27.2002092 9.58611675,27.1452862 9.67989179,27.0417169 L14.3170921,21.96944 L28.9671102,21.96944 C29.238125,21.96944 29.458079,21.7351015 29.458079,21.4463631 L29.458079,0.523286154 C29.458079,0.234024615 29.238125,0.000209230769 28.9671102,0.000209230769"></path>
                </g>
                <g id="Group" transform="translate(64.581281, 94.066667) rotate(-50.000000) translate(-64.581281, -94.066667) translate(53.251232, 82.733333)" fill="#492B6B" sketch:type="MSShapeGroup">
                    <path d="M21.9047619,21.8983051 L0.755336617,21.8983051 L0.755336617,4.99435028 L21.9047619,4.99435028 L21.9047619,21.8983051 Z M12.0853859,0.887457627 L15.9640394,4.2259887 L8.20673235,4.2259887 L12.0853859,0.887457627 Z M17.1336782,4.2259887 L12.3293596,0.0906666667 C12.1884893,-0.0299661017 11.9822824,-0.0299661017 11.8414122,0.0906666667 L7.0370936,4.2259887 L0,4.2259887 L0,22.6666667 L22.6600985,22.6666667 L22.6600985,4.2259887 L17.1336782,4.2259887 Z" id="Fill-1013"></path>
                    <path d="M6.66671429,16.519774 L10.203578,16.519774 C9.50677997,15.2047232 8.85492447,13.7056497 8.46517077,12.1666215 C8.06219869,13.7002712 7.38843842,15.1989605 6.66671429,16.519774" id="Fill-1014"></path>
                    <path d="M8.09516913,9.40981695 C8.09516913,9.19736497 8.26436453,9.02563616 8.47283744,9.02563616 C8.68131034,9.02563616 8.85050575,9.19736497 8.85050575,9.40981695 C8.85050575,14.0288226 12.7839212,19.3178395 13.5970411,20.3616588 L15.1065813,20.3616588 L15.1065813,16.9543593 C15.1065813,16.7419073 15.2757767,16.5701785 15.4842496,16.5701785 L17.3725911,16.5701785 L17.3725911,13.8305853 C17.3725911,13.6181333 17.5417865,13.4464045 17.7502594,13.4464045 L20.3939376,13.4464045 L20.3939376,6.53115028 L2.26585878,6.53115028 L2.26585878,20.3616588 L3.1964335,20.3616588 C4.18365846,19.1184497 8.09516913,13.908574 8.09516913,9.40981695" id="Fill-1015"></path>
                    <path d="M15.862069,20.3615819 L17.3727422,20.3615819 L17.3727422,17.3384633 L15.862069,17.3384633 L15.862069,20.3615819 Z" id="Fill-1016"></path>
                    <path d="M6.23114943,17.2881356 C5.45844007,18.6008814 4.68308703,19.6804294 4.16303777,20.3615819 L12.63867,20.3615819 C12.1495895,19.7057853 11.3878325,18.6208588 10.6268309,17.2881356 L6.23114943,17.2881356 Z" id="Fill-1017"></path>
                    <path d="M18.1280788,16.9542441 L18.1280788,20.3615435 L20.3940887,20.3615435 L20.3940887,14.2146508 L18.1280788,14.2146508 L18.1280788,16.9542441 Z" id="Fill-1018"></path>
                </g>
                <g id="Group" transform="translate(18.846375, 68.870342) rotate(-60.000000) translate(-18.846375, -68.870342) translate(4.683814, 55.270342)" fill="#68399C" sketch:type="MSShapeGroup">
                    <path d="M9.13811996,13.2200743 C9.13811996,13.0520171 9.22262325,12.8961029 9.36141635,12.8072171 C9.50020945,12.7193029 9.67346479,12.7095886 9.81981126,12.7848743 L19.4258047,17.6842743 C19.5863137,17.7658743 19.6882842,17.9349029 19.6882842,18.1194743 C19.6882842,18.3040457 19.5863137,18.4725886 19.4258047,18.5541886 L9.81981126,23.4535886 C9.75371931,23.4880743 9.68196233,23.5045886 9.61020535,23.5045886 C9.52334164,23.5045886 9.4374221,23.4798171 9.36141635,23.4312457 C9.22262325,23.3428457 9.13811996,23.1869314 9.13811996,23.0188743 L9.13811996,13.2200743 Z M-0.303587755,24.9782457 C-0.303587755,26.1765029 0.671268567,27.1731886 1.87980715,27.1999029 L25.8433334,27.1999029 L25.8485264,27.1999029 C27.0466791,27.1731886 28.0215354,26.1760171 28.0215354,24.9782457 L28.0215354,8.74276 L-0.303587755,8.74276 L-0.303587755,24.9782457 Z" id="Fill-281"></path>
                    <path d="M22.9712604,7.77142857 L28.0216298,7.77142857 L28.0216298,2.20708571 L22.9712604,7.77142857 Z" id="Fill-283"></path>
                    <path d="M7.04635683,7.77142857 L14.1800391,-2.57571742e-13 L10.7578921,-2.57571742e-13 L3.62420986,7.77142857 L7.04635683,7.77142857 Z" id="Fill-285"></path>
                    <path d="M21.6792571,7.77142857 L27.7559402,1.07634286 C27.478354,0.487657143 26.9944664,1.93178806e-13 26.3590395,1.93178806e-13 L25.3922086,1.93178806e-13 L18.2585264,7.77142857 L21.6792571,7.77142857 Z" id="Fill-287"></path>
                    <path d="M16.9601499,7.77142857 L24.0938322,-2.57571742e-13 L20.6716852,-2.57571742e-13 L13.538003,7.77142857 L16.9601499,7.77142857 Z" id="Fill-289"></path>
                    <path d="M9.45923244,2.57571742e-13 L6.03897382,2.57571742e-13 L-0.303493338,6.99185714 L-0.303493338,7.77142857 L2.32555018,7.77142857 L9.45923244,2.57571742e-13 Z" id="Fill-291"></path>
                    <path d="M1.35886093,-3.86357613e-13 C0.328770619,-3.86357613e-13 -0.303351712,1.27985714 -0.303351712,2.19688571 L-0.303351712,5.56774286 L4.74701775,-3.86357613e-13 L1.35886093,-3.86357613e-13 Z" id="Fill-293"></path>
                    <path d="M12.2392961,7.77142857 L19.3729783,3.21964677e-13 L15.478746,3.21964677e-13 L8.34506372,7.77142857 L12.2392961,7.77142857 Z" id="Fill-295"></path>
                </g>
                <g id="Group" transform="translate(140.492611, 15.866667) rotate(10.000000) translate(-140.492611, -15.866667) translate(126.896552, 2.266667)" fill="#68399C" sketch:type="MSShapeGroup">
                    <path d="M9.20158621,9.22033898 L13.5962857,25.8819525 L17.990532,9.22033898 L9.20158621,9.22033898 Z" id="Fill-2958"></path>
                    <path d="M17.7953833,8.29830508 L13.5960138,0.920189831 L9.39664433,8.29830508 L17.7953833,8.29830508 Z" id="Fill-2959"></path>
                    <path d="M20.6912985,-9.68114477e-14 L14.11987,-9.68114477e-14 L18.448402,7.60585763 L20.6912985,-9.68114477e-14 Z" id="Fill-2960"></path>
                    <path d="M26.9705931,8.29830508 L21.4737064,0.555986441 L19.1904749,8.29830508 L26.9705931,8.29830508 Z" id="Fill-2961"></path>
                    <path d="M13.0724749,-2.79776202e-14 L6.50104631,-2.79776202e-14 L8.74394286,7.60585763 L13.0724749,-2.79776202e-14 Z" id="Fill-2962"></path>
                    <path d="M5.7183665,0.556078644 L0.221479803,8.29839729 L8.00159803,8.29839729 L5.7183665,0.556078644 Z" id="Fill-2963"></path>
                    <path d="M0.222068966,9.22033898 L12.9869557,27.1308475 L8.26323153,9.22033898 L0.222068966,9.22033898 Z" id="Fill-2964"></path>
                    <path d="M14.2050719,27.1308936 L26.9699586,9.22038508 L18.9287961,9.22038508 L14.2050719,27.1308936 Z" id="Fill-2965"></path>
                </g>
                <g id="Fill-1325" transform="translate(173.916256, 49.866667) rotate(40.000000) translate(-173.916256, -49.866667) translate(165.418719, 36.266667)" fill="#4A2B6B" sketch:type="MSShapeGroup">
                    <path d="M8.61667677,23.77076 C7.07622584,23.77076 5.76150436,22.6247333 5.49001895,21.04532 C5.46430845,20.8948133 5.51311482,20.7411333 5.61944297,20.6364133 C5.7262069,20.53124 5.87611216,20.4895333 6.01904509,20.52444 C6.08789693,20.5412133 6.16284956,20.5498267 6.24172414,20.5498267 C7.02436908,20.5498267 8.08111406,19.7605733 8.64805229,18.7532667 C8.89731338,18.31036 9.25290261,17.4522 8.83586965,16.6801733 C8.76004547,16.53964 8.76135279,16.3678267 8.83935582,16.2291067 C8.91779462,16.0903867 9.06116332,16.0047067 9.21586207,16.0047067 C9.7919515,16.0047067 10.3140053,16.23772 10.7249375,16.67836 C11.5716408,17.5863867 11.8352823,19.2338 11.7995491,20.47276 C11.7455135,22.32236 10.3471239,23.77076 8.61667677,23.77076 M5.38848427,0.0315066667 C5.20676772,-0.04284 4.99934066,0.0174533333 4.88168246,0.179746667 C4.76402425,0.341586667 4.76402425,0.565533333 4.88211823,0.727373333 C7.6579803,4.53492 7.78391815,10.7904667 5.25208791,14.22356 C4.77186813,13.4175333 4.58143615,12.4383333 4.38185297,11.41108 L4.34917014,11.2428933 C4.3195377,11.0923867 4.21887457,10.96772 4.0811709,10.9115067 C3.94390299,10.85484 3.78789693,10.87524 3.66805987,10.965 C0.560140205,13.2819867 -0.69618795,17.2137467 0.467320955,20.9818533 C1.63388026,24.7590267 4.87165972,27.1997733 8.71559682,27.1997733 C13.0035847,27.1997733 15.9310951,24.6293733 16.7477302,20.1472667 C18.0145169,13.1944933 13.7522395,3.45236 5.38848427,0.0315066667"></path>
                </g>
                <g id="Fill-1316" transform="translate(30.591133, 122.400000) rotate(-60.000000) translate(-30.591133, -122.400000) translate(20.394089, 112.200000)" fill="#573280" sketch:type="MSShapeGroup">
                    <path d="M20.5090725,7.497 L13.4216411,6.32216923 L10.1969472,-0.0462923077 L6.97225334,6.32216923 L-0.115178044,7.497 L5.28925545,12.7366615 L3.66501196,20.3181385 L10.1954905,16.8009692 L16.6259409,20.3181385 L15.10124,12.7392769 L20.5090725,7.497 Z"></path>
                </g>
                <g id="Group" transform="translate(203.940887, 97.466667) rotate(60.000000) translate(-203.940887, -97.466667) translate(192.610837, 87.266667)" fill="#573280" sketch:type="MSShapeGroup">
                    <path d="M4.5320197,10.6434254 L4.5320197,11.9615792 C5.32474548,12.6292869 8.27093596,13.3381869 11.3300493,13.3381869 C14.3895402,13.3381869 17.335353,12.6292869 18.1280788,11.9615792 L18.1280788,10.6434254 C16.7076683,11.3554638 13.7947126,11.7689562 11.3300493,11.7689562 C8.86576355,11.7689562 5.95280788,11.3554638 4.5320197,10.6434254" id="Fill-2250"></path>
                    <path d="M4.5320197,12.8799323 L4.5320197,18.04584 C4.5320197,19.6629323 8.05604269,20.3996862 11.3300493,20.3996862 C14.6040558,20.3996862 18.1280788,19.6629323 18.1280788,18.04584 L18.1280788,12.8799323 C16.6793432,13.6574862 13.721445,14.1227631 11.3300493,14.1227631 C8.93865353,14.1227631 5.98075534,13.6578785 4.5320197,12.8799323" id="Fill-2251"></path>
                    <path d="M4.5320197,8.60444538 L4.5320197,9.74409923 C5.3054844,10.3486454 8.15310345,10.9841838 11.3300493,10.9841838 C14.5073727,10.9841838 17.3546141,10.3486454 18.1280788,9.74409923 L18.1280788,8.58993 C16.6094745,8.87631462 14.5874384,9.02303769 12.0853859,9.02303769 C9.71665025,9.02303769 6.45926108,8.97635308 4.5320197,8.60444538" id="Fill-2252"></path>
                    <path d="M11.3300493,5.49191538 C7.55525452,5.49191538 5.3579803,4.71318462 5.28735632,4.31695385 C5.35873563,3.9168 7.55676519,3.13806923 11.3300493,3.13806923 C15.1033333,3.13806923 17.3013629,3.9168 17.3727422,4.31303077 C17.3021182,4.71318462 15.104844,5.49191538 11.3300493,5.49191538 M11.3300493,-0.000392307692 C5.76057471,-0.000392307692 -2.57615494e-13,1.61356154 -2.57615494e-13,4.31499231 C-2.57615494e-13,5.73553846 1.64965517,6.99484615 4.5320197,7.79476154 L4.5320197,7.80535385 C6.59899836,8.23767692 10.6925452,8.23846154 12.0853859,8.23846154 C14.6202956,8.23846154 16.646486,8.08899231 18.1288342,7.79476154 C21.010821,6.99484615 22.6600985,5.73514615 22.6600985,4.31499231 C22.6600985,1.61356154 16.8995238,-0.000392307692 11.3300493,-0.000392307692" id="Fill-2253"></path>
                </g>
                <g id="Fill-999-+-Fill-1000" transform="translate(215.270936, 43.066667) rotate(50.000000) translate(-215.270936, -43.066667) translate(203.940887, 34.000000)" fill="#68399C" sketch:type="MSShapeGroup">
                    <path d="M11.3300493,13.7971014 C10.0803448,13.7971014 9.06403941,12.7363014 9.06403941,11.4318841 C9.06403941,10.1274667 10.0803448,9.06666667 11.3300493,9.06666667 C12.5797537,9.06666667 13.5960591,10.1274667 13.5960591,11.4318841 C13.5960591,12.7363014 12.5797537,13.7971014 11.3300493,13.7971014 M11.3300493,7.48985507 C9.24758621,7.48985507 7.55336617,9.25824928 7.55336617,11.4318841 C7.55336617,13.6055188 9.24758621,15.373913 11.3300493,15.373913 C13.4125123,15.373913 15.1067323,13.6055188 15.1067323,11.4318841 C15.1067323,9.25824928 13.4125123,7.48985507 11.3300493,7.48985507" id="Fill-999"></path>
                    <path d="M22.2824302,9.46086957 L15.4443678,9.46086957 C15.7098686,10.0616348 15.862069,10.7278377 15.862069,11.4318841 C15.862069,12.1359304 15.7098686,12.8021333 15.4443678,13.4028986 L22.2824302,13.4028986 L22.2824302,14.1913043 L15.0036289,14.1913043 C14.1799343,15.3825855 12.8418555,16.1623188 11.3300493,16.1623188 C9.81824302,16.1623188 8.4801642,15.3825855 7.65646962,14.1913043 L0.377668309,14.1913043 L0.377668309,13.4028986 L7.21573071,13.4028986 C6.95022989,12.8021333 6.79802956,12.1359304 6.79802956,11.4318841 C6.79802956,10.7278377 6.95022989,10.0616348 7.21573071,9.46086957 L0.377668309,9.46086957 L0.377668309,8.67246377 L7.65646962,8.67246377 C8.4801642,7.48118261 9.81824302,6.70144928 11.3300493,6.70144928 C12.8418555,6.70144928 14.1799343,7.48118261 15.0036289,8.67246377 L22.2824302,8.67246377 L22.2824302,9.46086957 Z M2.26600985,5.12463768 C2.26600985,4.90664348 2.43520525,4.73043478 2.64367816,4.73043478 L5.66502463,4.73043478 C5.87349754,4.73043478 6.04269294,4.90664348 6.04269294,5.12463768 L6.04269294,6.70144928 C6.04269294,6.91944348 5.87349754,7.09565217 5.66502463,7.09565217 L2.64367816,7.09565217 C2.43520525,7.09565217 2.26600985,6.91944348 2.26600985,6.70144928 L2.26600985,5.12463768 Z M18.9491297,5.12463768 C19.3656979,5.12463768 19.7044663,5.47823768 19.7044663,5.91304348 C19.7044663,6.34784928 19.3656979,6.70144928 18.9491297,6.70144928 C18.5325616,6.70144928 18.1937931,6.34784928 18.1937931,5.91304348 C18.1937931,5.47823768 18.5325616,5.12463768 18.9491297,5.12463768 L18.9491297,5.12463768 Z M21.5270936,2.36521739 L20.771757,2.36521739 L20.771757,1.1826087 C20.771757,0.530597101 20.2634154,3.22112707e-14 19.6387521,3.22112707e-14 L17.3727422,3.22112707e-14 C16.7480788,3.22112707e-14 16.2397373,0.530597101 16.2397373,1.1826087 L16.2397373,2.36521739 L1.13300493,2.36521739 C0.508341544,2.36521739 -1.93211621e-13,2.89581449 -1.93211621e-13,3.54782609 L-1.93211621e-13,16.9507246 C-1.93211621e-13,17.6027362 0.508341544,18.1333333 1.13300493,18.1333333 L21.5270936,18.1333333 C22.151757,18.1333333 22.6600985,17.6027362 22.6600985,16.9507246 L22.6600985,3.54782609 C22.6600985,2.89581449 22.151757,2.36521739 21.5270936,2.36521739 L21.5270936,2.36521739 Z" id="Fill-1000"></path>
                </g>
            </g>
        </g>
    </g>
</svg>